# xmcd CD database file
#
# Track frame offsets:
#	150
#	12459
#	25829
#	40384
#	54128
#	67437
#	82221
#	97470
#	110889
#	125793
#	138931
#	154074
#	166900
#	181609
#	195970
#	209898
#	227011
#	256463
#	284161
#
# Disc length: 4139 seconds
#
# Revision: 3
# Processed by: cddbd v1.5.2PL0 Copyright (c) Steve Scherf et al.
# Submitted via: CDex 1.70beta2
#
DISCID=27102913
DTITLE=Stan Getz - Stan Getz Quintets Disc 1
DYEAR=1900
DGENRE=Jazz
TTITLE0=Stella By Starlight
TTITLE1=Time On My Hands
TTITLE2='Tis Autumn
TTITLE3=The Way You Look Tonight
TTITLE4=Lover Come Back To Me
TTITLE5=Body And Soul
TTITLE6=Stars Fell On Alabama
TTITLE7=You Turn the Tables On Me
TTITLE8=Thanks For The Memory
TTITLE9=Hymn Of The Orient
TTITLE10=These Foolish things (Remind Me Of You)
TTITLE11=How Deep Is The Ocean
TTITLE12=Have You Met Miss Jones?
TTITLE13=Erudition
TTITLE14=Cool Mix
TTITLE15=Rustic Hop
TTITLE16=Love And The Weather
TTITLE17=Spring Is Here
TTITLE18=Crazy Rhythm
EXTD=
EXTT0=
EXTT1=
EXTT2=
EXTT3=
EXTT4=
EXTT5=
EXTT6=
EXTT7=
EXTT8=
EXTT9=
EXTT10=
EXTT11=
EXTT12=
EXTT13=
EXTT14=
EXTT15=
EXTT16=
EXTT17=
EXTT18=
PLAYORDER=
